<svg width="22" height="5" viewBox="0 0 22 5" fill="none" xmlns="http://www.w3.org/2000/svg">
<path d="M0.245117 2.69141C0.245117 2.21289 0.413737 1.80501 0.750977 1.46777C1.09277 1.13053 1.50065 0.961914 1.97461 0.961914C2.45312 0.961914 2.861 1.13053 3.19824 1.46777C3.54004 1.80501 3.71094 2.21289 3.71094 2.69141C3.71094 3.16992 3.54004 3.58008 3.19824 3.92188C2.861 4.25911 2.45312 4.42773 1.97461 4.42773C1.50065 4.42773 1.09277 4.25911 0.750977 3.92188C0.413737 3.58008 0.245117 3.16992 0.245117 2.69141ZM9.0498 2.69141C9.0498 2.21289 9.21842 1.80501 9.55566 1.46777C9.89746 1.13053 10.3053 0.961914 10.7793 0.961914C11.2578 0.961914 11.6657 1.13053 12.0029 1.46777C12.3447 1.80501 12.5156 2.21289 12.5156 2.69141C12.5156 3.16992 12.3447 3.58008 12.0029 3.92188C11.6657 4.25911 11.2578 4.42773 10.7793 4.42773C10.3053 4.42773 9.89746 4.25911 9.55566 3.92188C9.21842 3.58008 9.0498 3.16992 9.0498 2.69141ZM17.8545 2.69141C17.8545 2.21289 18.0231 1.80501 18.3604 1.46777C18.7021 1.13053 19.11 0.961914 19.584 0.961914C20.0625 0.961914 20.4704 1.13053 20.8076 1.46777C21.1494 1.80501 21.3203 2.21289 21.3203 2.69141C21.3203 3.16992 21.1494 3.58008 20.8076 3.92188C20.4704 4.25911 20.0625 4.42773 19.584 4.42773C19.11 4.42773 18.7021 4.25911 18.3604 3.92188C18.0231 3.58008 17.8545 3.16992 17.8545 2.69141Z" fill="#1E1E1E"/>
</svg>
