<svg width="158" height="14" viewBox="0 0 158 14" fill="none" xmlns="http://www.w3.org/2000/svg">
<path d="M0.483022 10.3457V0.391703H1.60302V4.6477C1.79902 4.16237 2.10236 3.79837 2.51302 3.5557C2.92369 3.3037 3.39969 3.1777 3.94102 3.1777C4.47302 3.1777 4.93502 3.29904 5.32702 3.5417C5.72836 3.77504 6.03636 4.10637 6.25102 4.5357C6.46569 4.9557 6.57302 5.45504 6.57302 6.0337V10.3457H5.43902V6.2157C5.43902 5.60904 5.28036 5.1237 4.96302 4.7597C4.64569 4.38637 4.22102 4.1997 3.68902 4.1997C3.27836 4.1997 2.91436 4.30237 2.59702 4.5077C2.28902 4.7037 2.04636 4.97904 1.86902 5.3337C1.69169 5.67904 1.60302 6.08037 1.60302 6.5377V10.3457H0.483022ZM11.8801 10.4577C11.3574 10.4577 10.8814 10.3644 10.4521 10.1777C10.0228 9.9817 9.65412 9.7157 9.34612 9.3797C9.03812 9.03437 8.80012 8.6377 8.63212 8.1897C8.46412 7.7417 8.38012 7.27037 8.38012 6.7757C8.38012 6.26237 8.45478 5.78637 8.60412 5.3477C8.76278 4.90904 8.98678 4.53104 9.27612 4.2137C9.57478 3.88704 9.92945 3.63504 10.3401 3.4577C10.7601 3.27104 11.2314 3.1777 11.7541 3.1777C12.2674 3.1777 12.7248 3.2617 13.1261 3.4297C13.5368 3.5977 13.8821 3.83104 14.1621 4.1297C14.4514 4.42837 14.6708 4.77837 14.8201 5.1797C14.9694 5.58104 15.0441 6.01504 15.0441 6.4817C15.0441 6.5657 15.0394 6.6497 15.0301 6.7337C15.0301 6.8177 15.0254 6.9017 15.0161 6.9857H9.03812V6.0617H13.8821C13.8448 5.46437 13.6348 4.99304 13.2521 4.6477C12.8788 4.30237 12.3794 4.1297 11.7541 4.1297C11.4088 4.1297 11.0961 4.19037 10.8161 4.3117C10.5361 4.4237 10.2981 4.59637 10.1021 4.8297C9.90612 5.0537 9.75678 5.32904 9.65412 5.6557C9.55145 5.97304 9.50012 6.3417 9.50012 6.7617C9.50012 7.28437 9.60278 7.75104 9.80812 8.1617C10.0134 8.56304 10.2934 8.88037 10.6481 9.1137C11.0121 9.34704 11.4228 9.4637 11.8801 9.4637C12.4494 9.4637 12.9114 9.34704 13.2661 9.1137C13.6208 8.87104 13.8541 8.5257 13.9661 8.0777H15.1141C15.0394 8.5537 14.8528 8.9737 14.5541 9.3377C14.2648 9.69237 13.8914 9.9677 13.4341 10.1637C12.9861 10.3597 12.4681 10.4577 11.8801 10.4577ZM17.0118 10.3457V0.391703H18.1318V10.3457H17.0118ZM20.5593 10.3457V0.391703H21.6793V10.3457H20.5593ZM27.2009 10.4577C26.5103 10.4577 25.8896 10.3037 25.3389 9.9957C24.7976 9.67837 24.3729 9.24904 24.0649 8.7077C23.7663 8.15704 23.6169 7.52704 23.6169 6.8177C23.6169 6.10837 23.7663 5.48304 24.0649 4.9417C24.3729 4.39104 24.7976 3.9617 25.3389 3.6537C25.8896 3.33637 26.5103 3.1777 27.2009 3.1777C27.9009 3.1777 28.5216 3.33637 29.0629 3.6537C29.6043 3.9617 30.0289 4.39104 30.3369 4.9417C30.6449 5.48304 30.7989 6.10837 30.7989 6.8177C30.7989 7.52704 30.6449 8.15704 30.3369 8.7077C30.0289 9.24904 29.6043 9.67837 29.0629 9.9957C28.5216 10.3037 27.9009 10.4577 27.2009 10.4577ZM27.2009 9.4497C27.6863 9.4497 28.1109 9.3377 28.4749 9.1137C28.8483 8.8897 29.1329 8.5817 29.3289 8.1897C29.5343 7.78837 29.6369 7.33104 29.6369 6.8177C29.6369 6.30437 29.5343 5.8517 29.3289 5.4597C29.1329 5.05837 28.8483 4.7457 28.4749 4.5217C28.1109 4.2977 27.6863 4.1857 27.2009 4.1857C26.7249 4.1857 26.3003 4.2977 25.9269 4.5217C25.5629 4.7457 25.2783 5.05837 25.0729 5.4597C24.8676 5.8517 24.7649 6.30437 24.7649 6.8177C24.7649 7.33104 24.8676 7.78837 25.0729 8.1897C25.2783 8.5817 25.5629 8.8897 25.9269 9.1137C26.2909 9.3377 26.7156 9.4497 27.2009 9.4497ZM37.1931 11.9137C36.4651 11.9137 35.8024 11.797 35.2051 11.5637C34.6078 11.3304 34.0944 10.9944 33.6651 10.5557C33.2451 10.117 32.9184 9.5897 32.6851 8.9737C32.4518 8.34837 32.3351 7.65304 32.3351 6.8877V5.1797C32.3351 4.1997 32.5451 3.3457 32.9651 2.6177C33.3851 1.88037 33.9778 1.31104 34.7431 0.909703C35.5084 0.499036 36.4044 0.293702 37.4311 0.293702H38.6071C39.3631 0.293702 40.0398 0.410369 40.6371 0.643703C41.2438 0.867703 41.7571 1.1897 42.1771 1.6097C42.6064 2.0297 42.9331 2.5337 43.1571 3.1217C43.3904 3.70037 43.5071 4.3397 43.5071 5.0397V6.2577C43.5071 6.79904 43.4231 7.27504 43.2551 7.6857C43.0964 8.08704 42.8678 8.3997 42.5691 8.6237C42.2704 8.8477 41.9064 8.9597 41.4771 8.9597C41.2064 8.9597 40.9498 8.9177 40.7071 8.8337C40.4644 8.74037 40.2591 8.61904 40.0911 8.4697C39.9324 8.31104 39.8204 8.14304 39.7551 7.9657C39.6618 8.1337 39.5171 8.29704 39.3211 8.4557C39.1344 8.61437 38.9058 8.74504 38.6351 8.8477C38.3644 8.95037 38.0471 9.0017 37.6831 9.0017C37.1044 9.0017 36.6144 8.8757 36.2131 8.6237C35.8118 8.36237 35.5038 8.01237 35.2891 7.5737C35.0838 7.13504 34.9811 6.64037 34.9811 6.0897C34.9811 5.76304 35.0184 5.45504 35.0931 5.1657C35.1678 4.86704 35.2798 4.60104 35.4291 4.3677C35.5784 4.12504 35.7604 3.9197 35.9751 3.7517C36.1898 3.57437 36.4418 3.43904 36.7311 3.3457C37.0204 3.25237 37.3378 3.2057 37.6831 3.2057C38.0564 3.2057 38.4158 3.2897 38.7611 3.4577C39.1064 3.61637 39.3724 3.8357 39.5591 4.1157V3.2897H40.5671V7.1117C40.5671 7.2797 40.6044 7.42904 40.6791 7.5597C40.7538 7.69037 40.8611 7.79304 41.0011 7.8677C41.1411 7.94237 41.2998 7.9797 41.4771 7.9797C41.8038 7.9797 42.0558 7.83037 42.2331 7.5317C42.4104 7.2237 42.4991 6.79904 42.4991 6.2577V5.0397C42.4991 4.48904 42.4104 3.98504 42.2331 3.5277C42.0558 3.06104 41.7944 2.6597 41.4491 2.3237C41.1131 1.9877 40.7024 1.72637 40.2171 1.5397C39.7411 1.35304 39.2044 1.2597 38.6071 1.2597H37.4311C36.6191 1.2597 35.9051 1.4277 35.2891 1.7637C34.6731 2.09037 34.1924 2.5477 33.8471 3.1357C33.5111 3.71437 33.3431 4.3957 33.3431 5.1797V6.8877C33.3431 7.5037 33.4318 8.05904 33.6091 8.5537C33.7958 9.04837 34.0571 9.4777 34.3931 9.8417C34.7384 10.1964 35.1491 10.467 35.6251 10.6537C36.1011 10.8497 36.6238 10.9477 37.1931 10.9477H39.8111V11.9137H37.1931ZM37.7951 8.1477C38.0751 8.1477 38.3271 8.10104 38.5511 8.0077C38.7751 7.91437 38.9664 7.77437 39.1251 7.5877C39.2838 7.40104 39.4051 7.18637 39.4891 6.9437C39.5731 6.6917 39.6151 6.4117 39.6151 6.1037C39.6151 5.47837 39.4518 4.97904 39.1251 4.6057C38.7984 4.23237 38.3551 4.0457 37.7951 4.0457C37.5804 4.0457 37.3751 4.07837 37.1791 4.1437C36.9924 4.1997 36.8244 4.28837 36.6751 4.4097C36.5258 4.5217 36.3998 4.66637 36.2971 4.8437C36.1944 5.0117 36.1151 5.20304 36.0591 5.4177C36.0031 5.62304 35.9751 5.8517 35.9751 6.1037C35.9751 6.7197 36.1384 7.21437 36.4651 7.5877C36.8011 7.96104 37.2444 8.1477 37.7951 8.1477ZM44.0172 13.2017V12.2357H44.6052C44.9226 12.2357 45.1606 12.1237 45.3192 11.8997C45.4872 11.685 45.5712 11.3724 45.5712 10.9617V3.2897H46.6912V11.0037C46.6912 11.713 46.5186 12.2544 46.1732 12.6277C45.8279 13.0104 45.3286 13.2017 44.6752 13.2017H44.0172ZM45.4872 0.391703H46.7752V1.9597H45.4872V0.391703ZM51.6528 10.4577C51.1301 10.4577 50.6681 10.341 50.2668 10.1077C49.8748 9.86504 49.5715 9.52904 49.3568 9.0997C49.1421 8.67037 49.0348 8.17104 49.0348 7.6017V3.2897H50.1548V7.4197C50.1548 8.01704 50.3135 8.50237 50.6308 8.8757C50.9575 9.24904 51.3868 9.4357 51.9188 9.4357C52.3201 9.4357 52.6748 9.3377 52.9828 9.1417C53.3001 8.93637 53.5475 8.65637 53.7248 8.3017C53.9021 7.94704 53.9908 7.5457 53.9908 7.0977V3.2897H55.1108V10.3457H53.9908V8.9877C53.8041 9.47304 53.5055 9.8417 53.0948 10.0937C52.6841 10.3364 52.2035 10.4577 51.6528 10.4577ZM57.5199 10.3457V0.391703H58.6399V10.3457H57.5199ZM61.0675 10.3457V3.2897H62.1875V10.3457H61.0675ZM60.9835 0.391703H62.2715V1.9597H60.9835V0.391703ZM66.8551 10.4577C66.3044 10.4577 65.8284 10.3644 65.4271 10.1777C65.0257 9.99104 64.7084 9.72037 64.4751 9.3657C64.2511 9.01104 64.1204 8.58637 64.0831 8.0917H65.1331C65.1797 8.53037 65.3524 8.8757 65.6511 9.1277C65.9497 9.37037 66.3511 9.4917 66.8551 9.4917C67.1537 9.4917 67.4197 9.44504 67.6531 9.3517C67.8864 9.25837 68.0637 9.12304 68.1851 8.9457C68.3064 8.76837 68.3671 8.56304 68.3671 8.3297C68.3671 8.05904 68.2924 7.8537 68.1431 7.7137C67.9937 7.5737 67.7977 7.46637 67.5551 7.3917C67.3124 7.31704 67.0464 7.26104 66.7571 7.2237C66.4677 7.17704 66.1737 7.12104 65.8751 7.0557C65.5764 6.99037 65.3057 6.89237 65.0631 6.7617C64.8204 6.63104 64.6244 6.44904 64.4751 6.2157C64.3257 5.97304 64.2511 5.6557 64.2511 5.2637C64.2511 4.8437 64.3584 4.4797 64.5731 4.1717C64.7877 3.8637 65.0817 3.62104 65.4551 3.4437C65.8284 3.26637 66.2577 3.1777 66.7431 3.1777C67.2844 3.1777 67.7464 3.2617 68.1291 3.4297C68.5117 3.5977 68.8151 3.84504 69.0391 4.1717C69.2631 4.49837 69.3937 4.8857 69.4311 5.3337H68.3671C68.3391 5.0817 68.2551 4.86704 68.1151 4.6897C67.9751 4.51237 67.7884 4.37237 67.5551 4.2697C67.3217 4.16704 67.0557 4.1157 66.7571 4.1157C66.3837 4.1157 66.0524 4.20904 65.7631 4.3957C65.4831 4.58237 65.3431 4.84837 65.3431 5.1937C65.3431 5.45504 65.4177 5.65104 65.5671 5.7817C65.7164 5.91237 65.9124 6.01037 66.1551 6.0757C66.3977 6.14104 66.6684 6.19704 66.9671 6.2437C67.2657 6.28104 67.5597 6.33237 67.8491 6.3977C68.1477 6.46304 68.4184 6.5657 68.6611 6.7057C68.9037 6.83637 69.0997 7.0277 69.2491 7.2797C69.3984 7.5317 69.4731 7.8677 69.4731 8.2877C69.4731 8.6237 69.4124 8.92237 69.2911 9.1837C69.1791 9.44504 69.0111 9.6737 68.7871 9.8697C68.5631 10.0564 68.2877 10.201 67.9611 10.3037C67.6437 10.4064 67.2751 10.4577 66.8551 10.4577ZM73.6565 10.4577C73.1059 10.4577 72.6299 10.3644 72.2285 10.1777C71.8272 9.99104 71.5099 9.72037 71.2765 9.3657C71.0525 9.01104 70.9219 8.58637 70.8845 8.0917H71.9345C71.9812 8.53037 72.1539 8.8757 72.4525 9.1277C72.7512 9.37037 73.1525 9.4917 73.6565 9.4917C73.9552 9.4917 74.2212 9.44504 74.4545 9.3517C74.6879 9.25837 74.8652 9.12304 74.9865 8.9457C75.1079 8.76837 75.1685 8.56304 75.1685 8.3297C75.1685 8.05904 75.0939 7.8537 74.9445 7.7137C74.7952 7.5737 74.5992 7.46637 74.3565 7.3917C74.1139 7.31704 73.8479 7.26104 73.5585 7.2237C73.2692 7.17704 72.9752 7.12104 72.6765 7.0557C72.3779 6.99037 72.1072 6.89237 71.8645 6.7617C71.6219 6.63104 71.4259 6.44904 71.2765 6.2157C71.1272 5.97304 71.0525 5.6557 71.0525 5.2637C71.0525 4.8437 71.1599 4.4797 71.3745 4.1717C71.5892 3.8637 71.8832 3.62104 72.2565 3.4437C72.6299 3.26637 73.0592 3.1777 73.5445 3.1777C74.0859 3.1777 74.5479 3.2617 74.9305 3.4297C75.3132 3.5977 75.6165 3.84504 75.8405 4.1717C76.0645 4.49837 76.1952 4.8857 76.2325 5.3337H75.1685C75.1405 5.0817 75.0565 4.86704 74.9165 4.6897C74.7765 4.51237 74.5899 4.37237 74.3565 4.2697C74.1232 4.16704 73.8572 4.1157 73.5585 4.1157C73.1852 4.1157 72.8539 4.20904 72.5645 4.3957C72.2845 4.58237 72.1445 4.84837 72.1445 5.1937C72.1445 5.45504 72.2192 5.65104 72.3685 5.7817C72.5179 5.91237 72.7139 6.01037 72.9565 6.0757C73.1992 6.14104 73.4699 6.19704 73.7685 6.2437C74.0672 6.28104 74.3612 6.33237 74.6505 6.3977C74.9492 6.46304 75.2199 6.5657 75.4625 6.7057C75.7052 6.83637 75.9012 7.0277 76.0505 7.2797C76.1999 7.5317 76.2745 7.8677 76.2745 8.2877C76.2745 8.6237 76.2139 8.92237 76.0925 9.1837C75.9805 9.44504 75.8125 9.6737 75.5885 9.8697C75.3645 10.0564 75.0892 10.201 74.7625 10.3037C74.4452 10.4064 74.0765 10.4577 73.6565 10.4577ZM80.318 10.4577C79.8327 10.4577 79.4034 10.369 79.03 10.1917C78.666 10.0144 78.3814 9.76704 78.176 9.4497C77.98 9.12304 77.882 8.7497 77.882 8.3297C77.882 7.87237 77.994 7.4757 78.218 7.1397C78.4514 6.8037 78.778 6.54704 79.198 6.3697C79.618 6.18304 80.1127 6.0897 80.682 6.0897H82.32C82.4694 6.0897 82.5767 6.0617 82.642 6.0057C82.7074 5.9497 82.74 5.8657 82.74 5.7537C82.74 5.2777 82.572 4.89037 82.236 4.5917C81.9094 4.2837 81.4474 4.1297 80.85 4.1297C80.5047 4.1297 80.192 4.19504 79.912 4.3257C79.632 4.45637 79.4034 4.62904 79.226 4.8437C79.058 5.05837 78.9647 5.29637 78.946 5.5577H77.868C77.9147 5.09104 78.0734 4.68037 78.344 4.3257C78.624 3.97104 78.9834 3.69104 79.422 3.4857C79.8607 3.28037 80.3414 3.1777 80.864 3.1777C81.48 3.1777 82.0074 3.2897 82.446 3.5137C82.894 3.72837 83.2394 4.0317 83.482 4.4237C83.734 4.8157 83.86 5.27304 83.86 5.7957V10.3457H82.74V9.1277C82.6094 9.38904 82.4227 9.62237 82.18 9.8277C81.9467 10.0237 81.6714 10.1777 81.354 10.2897C81.0367 10.4017 80.6914 10.4577 80.318 10.4577ZM80.486 9.5057C81.1954 9.5057 81.746 9.30037 82.138 8.8897C82.5394 8.4697 82.74 7.8957 82.74 7.1677V7.0137H80.752C80.2387 7.0137 79.8234 7.13037 79.506 7.3637C79.1887 7.5877 79.03 7.90504 79.03 8.3157C79.03 8.67037 79.1607 8.9597 79.422 9.1837C79.6927 9.39837 80.0474 9.5057 80.486 9.5057ZM85.5659 10.3457V9.3517L89.9339 4.2837H85.7619V3.2897H91.2359V4.2837L86.9099 9.3517H91.4319V10.3457H85.5659ZM95.3429 10.4577C94.8575 10.4577 94.4282 10.369 94.0549 10.1917C93.6909 10.0144 93.4062 9.76704 93.2009 9.4497C93.0049 9.12304 92.9069 8.7497 92.9069 8.3297C92.9069 7.87237 93.0189 7.4757 93.2429 7.1397C93.4762 6.8037 93.8029 6.54704 94.2229 6.3697C94.6429 6.18304 95.1375 6.0897 95.7069 6.0897H97.3449C97.4942 6.0897 97.6015 6.0617 97.6669 6.0057C97.7322 5.9497 97.7649 5.8657 97.7649 5.7537C97.7649 5.2777 97.5969 4.89037 97.2609 4.5917C96.9342 4.2837 96.4722 4.1297 95.8749 4.1297C95.5295 4.1297 95.2169 4.19504 94.9369 4.3257C94.6569 4.45637 94.4282 4.62904 94.2509 4.8437C94.0829 5.05837 93.9895 5.29637 93.9709 5.5577H92.8929C92.9395 5.09104 93.0982 4.68037 93.3689 4.3257C93.6489 3.97104 94.0082 3.69104 94.4469 3.4857C94.8855 3.28037 95.3662 3.1777 95.8889 3.1777C96.5049 3.1777 97.0322 3.2897 97.4709 3.5137C97.9189 3.72837 98.2642 4.0317 98.5069 4.4237C98.7589 4.8157 98.8849 5.27304 98.8849 5.7957V10.3457H97.7649V9.1277C97.6342 9.38904 97.4475 9.62237 97.2049 9.8277C96.9715 10.0237 96.6962 10.1777 96.3789 10.2897C96.0615 10.4017 95.7162 10.4577 95.3429 10.4577ZM95.5109 9.5057C96.2202 9.5057 96.7709 9.30037 97.1629 8.8897C97.5642 8.4697 97.7649 7.8957 97.7649 7.1677V7.0137H95.7769C95.2635 7.0137 94.8482 7.13037 94.5309 7.3637C94.2135 7.5877 94.0549 7.90504 94.0549 8.3157C94.0549 8.67037 94.1855 8.9597 94.4469 9.1837C94.7175 9.39837 95.0722 9.5057 95.5109 9.5057ZM102.862 10.3457L100.272 3.2897H101.434L103.45 8.9597L105.466 3.2897H106.614L104.038 10.3457H102.862ZM110.19 10.4577C109.705 10.4577 109.275 10.369 108.902 10.1917C108.538 10.0144 108.253 9.76704 108.048 9.4497C107.852 9.12304 107.754 8.7497 107.754 8.3297C107.754 7.87237 107.866 7.4757 108.09 7.1397C108.323 6.8037 108.65 6.54704 109.07 6.3697C109.49 6.18304 109.985 6.0897 110.554 6.0897H112.192C112.341 6.0897 112.449 6.0617 112.514 6.0057C112.579 5.9497 112.612 5.8657 112.612 5.7537C112.612 5.2777 112.444 4.89037 112.108 4.5917C111.781 4.2837 111.319 4.1297 110.722 4.1297C110.377 4.1297 110.064 4.19504 109.784 4.3257C109.504 4.45637 109.275 4.62904 109.098 4.8437C108.93 5.05837 108.837 5.29637 108.818 5.5577H107.74C107.787 5.09104 107.945 4.68037 108.216 4.3257C108.496 3.97104 108.855 3.69104 109.294 3.4857C109.733 3.28037 110.213 3.1777 110.736 3.1777C111.352 3.1777 111.879 3.2897 112.318 3.5137C112.766 3.72837 113.111 4.0317 113.354 4.4237C113.606 4.8157 113.732 5.27304 113.732 5.7957V10.3457H112.612V9.1277C112.481 9.38904 112.295 9.62237 112.052 9.8277C111.819 10.0237 111.543 10.1777 111.226 10.2897C110.909 10.4017 110.563 10.4577 110.19 10.4577ZM110.358 9.5057C111.067 9.5057 111.618 9.30037 112.01 8.8897C112.411 8.4697 112.612 7.8957 112.612 7.1677V7.0137H110.624C110.111 7.0137 109.695 7.13037 109.378 7.3637C109.061 7.5877 108.902 7.90504 108.902 8.3157C108.902 8.67037 109.033 8.9597 109.294 9.1837C109.565 9.39837 109.919 9.5057 110.358 9.5057ZM116.04 10.3457V0.391703H117.16V10.3457H116.04ZM121.687 10.4577C121.202 10.4577 120.773 10.369 120.399 10.1917C120.035 10.0144 119.751 9.76704 119.545 9.4497C119.349 9.12304 119.251 8.7497 119.251 8.3297C119.251 7.87237 119.363 7.4757 119.587 7.1397C119.821 6.8037 120.147 6.54704 120.567 6.3697C120.987 6.18304 121.482 6.0897 122.051 6.0897H123.689C123.839 6.0897 123.946 6.0617 124.011 6.0057C124.077 5.9497 124.109 5.8657 124.109 5.7537C124.109 5.2777 123.941 4.89037 123.605 4.5917C123.279 4.2837 122.817 4.1297 122.219 4.1297C121.874 4.1297 121.561 4.19504 121.281 4.3257C121.001 4.45637 120.773 4.62904 120.595 4.8437C120.427 5.05837 120.334 5.29637 120.315 5.5577H119.237C119.284 5.09104 119.443 4.68037 119.713 4.3257C119.993 3.97104 120.353 3.69104 120.791 3.4857C121.23 3.28037 121.711 3.1777 122.233 3.1777C122.849 3.1777 123.377 3.2897 123.815 3.5137C124.263 3.72837 124.609 4.0317 124.851 4.4237C125.103 4.8157 125.229 5.27304 125.229 5.7957V10.3457H124.109V9.1277C123.979 9.38904 123.792 9.62237 123.549 9.8277C123.316 10.0237 123.041 10.1777 122.723 10.2897C122.406 10.4017 122.061 10.4577 121.687 10.4577ZM121.855 9.5057C122.565 9.5057 123.115 9.30037 123.507 8.8897C123.909 8.4697 124.109 7.8957 124.109 7.1677V7.0137H122.121C121.608 7.0137 121.193 7.13037 120.875 7.3637C120.558 7.5877 120.399 7.90504 120.399 8.3157C120.399 8.67037 120.53 8.9597 120.791 9.1837C121.062 9.39837 121.417 9.5057 121.855 9.5057ZM127.341 9.0437H128.615V10.3457H127.341V9.0437ZM133.615 10.4577C132.877 10.4577 132.252 10.285 131.739 9.9397C131.225 9.59437 130.838 9.14637 130.577 8.5957C130.315 8.04504 130.185 7.45237 130.185 6.8177C130.185 6.3417 130.255 5.88904 130.395 5.4597C130.544 5.02104 130.763 4.62904 131.053 4.2837C131.351 3.93837 131.711 3.6677 132.131 3.4717C132.56 3.2757 133.055 3.1777 133.615 3.1777C134.147 3.1777 134.641 3.2757 135.099 3.4717C135.565 3.6677 135.953 3.95237 136.261 4.3257C136.569 4.69904 136.755 5.14704 136.821 5.6697H135.715C135.668 5.3897 135.542 5.1377 135.337 4.9137C135.141 4.6897 134.893 4.51237 134.595 4.3817C134.305 4.25104 133.983 4.1857 133.629 4.1857C133.115 4.1857 132.686 4.30704 132.341 4.5497C132.005 4.78304 131.753 5.10037 131.585 5.5017C131.426 5.8937 131.347 6.33237 131.347 6.8177C131.347 7.2937 131.431 7.73237 131.599 8.1337C131.767 8.53504 132.019 8.85704 132.355 9.0997C132.7 9.33304 133.125 9.4497 133.629 9.4497C134.161 9.4497 134.609 9.3237 134.973 9.0717C135.346 8.8197 135.593 8.4837 135.715 8.0637H136.807C136.732 8.5397 136.555 8.9597 136.275 9.3237C135.995 9.67837 135.631 9.95837 135.183 10.1637C134.735 10.3597 134.212 10.4577 133.615 10.4577ZM141.787 10.4577C141.096 10.4577 140.476 10.3037 139.925 9.9957C139.384 9.67837 138.959 9.24904 138.651 8.7077C138.352 8.15704 138.203 7.52704 138.203 6.8177C138.203 6.10837 138.352 5.48304 138.651 4.9417C138.959 4.39104 139.384 3.9617 139.925 3.6537C140.476 3.33637 141.096 3.1777 141.787 3.1777C142.487 3.1777 143.108 3.33637 143.649 3.6537C144.19 3.9617 144.615 4.39104 144.923 4.9417C145.231 5.48304 145.385 6.10837 145.385 6.8177C145.385 7.52704 145.231 8.15704 144.923 8.7077C144.615 9.24904 144.19 9.67837 143.649 9.9957C143.108 10.3037 142.487 10.4577 141.787 10.4577ZM141.787 9.4497C142.272 9.4497 142.697 9.3377 143.061 9.1137C143.434 8.8897 143.719 8.5817 143.915 8.1897C144.12 7.78837 144.223 7.33104 144.223 6.8177C144.223 6.30437 144.12 5.8517 143.915 5.4597C143.719 5.05837 143.434 4.7457 143.061 4.5217C142.697 4.2977 142.272 4.1857 141.787 4.1857C141.311 4.1857 140.886 4.2977 140.513 4.5217C140.149 4.7457 139.864 5.05837 139.659 5.4597C139.454 5.8517 139.351 6.30437 139.351 6.8177C139.351 7.33104 139.454 7.78837 139.659 8.1897C139.864 8.5817 140.149 8.8897 140.513 9.1137C140.877 9.3377 141.302 9.4497 141.787 9.4497ZM147.299 10.3457V3.2897H148.433V4.6477C148.564 4.20904 148.816 3.85437 149.189 3.5837C149.572 3.31304 150.034 3.1777 150.575 3.1777C151.135 3.1777 151.625 3.30837 152.045 3.5697C152.475 3.83104 152.755 4.20437 152.885 4.6897C152.979 4.40037 153.137 4.1437 153.361 3.9197C153.585 3.68637 153.856 3.50437 154.173 3.3737C154.491 3.24304 154.817 3.1777 155.153 3.1777C155.667 3.1777 156.105 3.2897 156.469 3.5137C156.833 3.72837 157.113 4.04104 157.309 4.4517C157.515 4.85304 157.617 5.33837 157.617 5.9077V10.3457H156.483V6.2017C156.483 5.60437 156.343 5.11904 156.063 4.7457C155.783 4.37237 155.391 4.1857 154.887 4.1857C154.505 4.1857 154.169 4.2977 153.879 4.5217C153.599 4.7457 153.385 5.03504 153.235 5.3897C153.086 5.74437 153.011 6.12237 153.011 6.5237V10.3457H151.891V6.2017C151.891 5.60437 151.751 5.11904 151.471 4.7457C151.191 4.37237 150.804 4.1857 150.309 4.1857C149.917 4.1857 149.581 4.2977 149.301 4.5217C149.021 4.7457 148.807 5.03504 148.657 5.3897C148.508 5.74437 148.433 6.12237 148.433 6.5237V10.3457H147.299Z" fill="#1E1E1E"/>
</svg>
